# Blender v2.92.0 Alpha OBJ File: 'Black hole.blend'
# www.blender.org
mtllib Black hole.mtl
o Sphere
v 0.162875 1.106279 -0.459301
v 0.147624 0.996236 -0.668625
v 0.126700 0.847909 -0.852254
v 0.100907 0.666996 -1.003131
v 0.071237 0.460452 -1.115458
v 0.038828 0.236213 -1.184919
v 0.004928 0.002896 -1.208845
v -0.119731 -0.843813 -0.857311
v -0.142148 -0.993019 -0.674571
v -0.159103 -1.104063 -0.465908
v 0.208513 1.100510 -0.454685
v 0.237146 0.984921 -0.659569
v 0.256666 0.831482 -0.839107
v 0.266322 0.646089 -0.986398
v 0.265744 0.435867 -1.095782
v 0.254953 0.208895 -1.163056
v 0.234365 -0.026104 -1.185635
v 0.204770 -0.260100 -1.162650
v 0.167306 -0.484101 -1.094985
v 0.123413 -0.689498 -0.985241
v 0.074776 -0.868398 -0.837634
v 0.023267 -1.013926 -0.657838
v -0.029137 -1.120490 -0.452761
v -0.080422 -1.183993 -0.230285
v -0.128615 -1.201997 0.001041
v 0.252615 1.096692 -0.441351
v 0.323656 0.977431 -0.633415
v 0.382259 0.820608 -0.801136
v 0.426173 0.632249 -0.938071
v 0.453708 0.419593 -1.038955
v 0.463808 0.190813 -1.099914
v 0.456084 -0.045300 -1.118603
v 0.430833 -0.279673 -1.094305
v 0.389025 -0.503298 -1.027954
v 0.332267 -0.707581 -0.922099
v 0.262741 -0.884672 -0.780808
v 0.183117 -1.027766 -0.609511
v 0.096456 -1.131364 -0.414791
v 0.006089 -1.191483 -0.204131
v -0.084513 -1.205815 0.014374
v 0.293488 1.094970 -0.419814
v 0.403831 0.974054 -0.591167
v 0.498655 0.815705 -0.739802
v 0.574316 0.626009 -0.860007
v 0.627906 0.412256 -0.947163
v 0.657366 0.182660 -0.997919
v 0.661564 -0.053956 -1.010327
v 0.640339 -0.288498 -0.983907
v 0.594506 -0.511953 -0.919677
v 0.525826 -0.715734 -0.820104
v 0.436939 -0.892010 -0.689015
v 0.331260 -1.034006 -0.531448
v 0.212852 -1.136266 -0.353457
v 0.086264 -1.194860 -0.161883
v -0.043640 -1.207537 0.035912
v 0.329560 1.095412 -0.390899
v 0.474588 0.974920 -0.534450
v 0.601379 0.816962 -0.657462
v 0.705059 0.627608 -0.755208
v 0.781643 0.414137 -0.823931
v 0.828190 0.184750 -0.860992
v 0.842910 -0.051737 -0.864965
v 0.825237 -0.286236 -0.835698
v 0.775851 -0.509734 -0.774316
v 0.696649 -0.713644 -0.683177
v 0.590676 -0.890129 -0.565784
v 0.462003 -1.032407 -0.426648
v 0.315576 -1.135010 -0.271116
v 0.157021 -1.193995 -0.105166
v -0.007568 -1.207095 0.064826
v 0.359445 1.097999 -0.355720
v 0.533210 0.979995 -0.465443
v 0.686484 0.824330 -0.557279
v 0.813376 0.636986 -0.627699
v 0.909012 0.425164 -0.673997
v 0.969714 0.197002 -0.694394
v 0.993151 -0.038730 -0.688105
v 0.978422 -0.272974 -0.655373
v 0.926092 -0.496727 -0.597456
v 0.838174 -0.701392 -0.516579
v 0.718044 -0.879102 -0.415849
v 0.570321 -1.023029 -0.299139
v 0.400681 -1.127642 -0.170933
v 0.215642 -1.188920 -0.036159
v 0.022317 -1.204508 0.100006
v 0.381994 1.102633 -0.315627
v 0.577442 0.989084 -0.386797
v 0.750699 0.837526 -0.443103
v 0.895107 0.653781 -0.482381
v 1.005117 0.444913 -0.503121
v 1.076501 0.218946 -0.504527
v 1.106515 -0.015434 -0.486544
v 1.094006 -0.249221 -0.449863
v 1.039456 -0.473431 -0.395894
v 0.944960 -0.679447 -0.326712
v 0.814149 -0.859353 -0.244974
v 0.652052 -1.006234 -0.153821
v 0.464896 -1.114446 -0.056758
v 0.259875 -1.179830 0.042487
v 0.044866 -1.199874 0.140099
v 0.396341 1.109135 -0.272161
v 0.605586 1.001839 -0.301536
v 0.791557 0.856043 -0.319323
v 0.947110 0.677349 -0.324839
v 1.066265 0.472625 -0.317872
v 1.144445 0.249739 -0.298688
v 1.178644 0.017255 -0.268027
v 1.167549 -0.215892 -0.227065
v 1.111585 -0.440742 -0.177377
v 1.012904 -0.648655 -0.120873
v 0.875298 -0.831640 -0.059724
v 0.704054 -0.982666 0.003721
v 0.505754 -1.095929 0.067022
v 0.288018 -1.167075 0.127748
v 0.059214 -1.193372 0.183565
v 0.401935 1.117256 -0.226993
v 0.616559 1.017769 -0.212936
v 0.807487 0.879169 -0.190695
v 0.967385 0.706783 -0.161127
v 1.090107 0.507236 -0.125366
v 1.170936 0.288196 -0.084788
v 1.206768 0.058081 -0.040951
v 1.196223 -0.174266 0.004459
v 1.139709 -0.399916 0.049698
v 1.039396 -0.610197 0.093027
v 0.899140 -0.797029 0.132782
v 0.724330 -0.953232 0.167433
v 0.521684 -1.072802 0.195650
v 0.298991 -1.151146 0.216349
v 0.064808 -1.185251 0.228733
v 0.398561 1.126683 -0.181858
v 0.609940 1.036261 -0.124401
v 0.797878 0.906016 -0.062163
v 0.955155 0.740953 0.002464
v 1.075726 0.547415 0.066997
v 1.154957 0.332841 0.128954
v 1.189804 0.105476 0.185956
v 1.178927 -0.125942 0.235812
v 1.122745 -0.352521 0.276606
v 1.023417 -0.565553 0.306770
v 0.884758 -0.756850 0.325144
v 0.712100 -0.919062 0.331024
v 0.512075 -1.045956 0.324183
v 0.292373 -1.132653 0.304883
v 0.061434 -1.175824 0.273867
v 0.386348 1.137055 -0.138491
v 0.585983 1.056606 -0.039334
v 0.763099 0.935552 0.061335
v 0.910889 0.778545 0.159648
v 1.023675 0.591619 0.251824
v 1.097121 0.381957 0.334324
v 1.128405 0.157618 0.403976
v 1.116325 -0.072779 0.458103
v 1.061347 -0.300380 0.494625
v 0.965580 -0.516436 0.512139
v 0.832707 -0.712647 0.509972
v 0.667834 -0.881470 0.488207
v 0.477296 -1.016420 0.447681
v 0.268416 -1.112309 0.389951
v 0.049221 -1.165452 0.317234
v 0.365766 1.147972 -0.098559
v 0.545610 1.078021 0.038996
v 0.704486 0.966641 0.175053
v 0.836289 0.818114 0.304382
v 0.935954 0.638148 0.422015
v 0.999651 0.433658 0.523429
v 1.024931 0.212502 0.604729
v 1.010824 -0.016820 0.662789
v 0.957873 -0.245495 0.695378
v 0.868110 -0.464736 0.701245
v 0.744986 -0.666118 0.680163
v 0.593233 -0.841901 0.632942
v 0.418683 -0.985330 0.561398
v 0.228042 -1.090894 0.468281
v 0.028638 -1.154535 0.357167
v 0.337605 1.159016 -0.063596
v 0.490371 1.099683 0.107579
v 0.624291 0.998090 0.274620
v 0.734220 0.858141 0.431107
v 0.815934 0.685214 0.571027
v 0.866292 0.485955 0.689003
v 0.883358 0.268021 0.780500
v 0.866478 0.039787 0.842004
v 0.816299 -0.189976 0.871150
v 0.734751 -0.412439 0.866818
v 0.624966 -0.619051 0.829175
v 0.491165 -0.801874 0.759667
v 0.338488 -0.953881 0.660965
v 0.172803 -1.069231 0.536863
v 0.000478 -1.143492 0.392130
v 0.302949 1.169761 -0.034945
v 0.422389 1.120760 0.163779
v 0.525597 1.028689 0.356210
v 0.608606 0.897087 0.534951
v 0.668227 0.731009 0.693134
v 0.702169 0.536840 0.824681
v 0.709127 0.322040 0.924536
v 0.688833 0.094864 0.988862
v 0.642068 -0.135957 1.015186
v 0.570629 -0.361554 1.002497
v 0.477260 -0.573256 0.951282
v 0.365551 -0.762929 0.863511
v 0.239794 -0.923282 0.742555
v 0.104822 -1.048154 0.593063
v -0.034179 -1.132747 0.420780
v 0.263127 1.179794 -0.013708
v 0.344277 1.140442 0.205437
v 0.412196 1.057263 0.416687
v 0.464274 0.933454 0.611924
v 0.498511 0.773773 0.783645
v 0.513590 0.584356 0.925252
v 0.508932 0.372483 1.031301
v 0.484716 0.146296 1.097718
v 0.441874 -0.085514 1.121950
v 0.382050 -0.314037 1.103067
v 0.307544 -0.530492 1.041793
v 0.221219 -0.726561 0.940484
v 0.126393 -0.894708 0.803032
v 0.026710 -1.028472 0.634721
v -0.074000 -1.122713 0.442017
v 0.219672 1.188731 -0.000701
v 0.259036 1.157973 0.230951
v 0.288446 1.082714 0.453728
v 0.306771 0.965847 0.659068
v 0.313306 0.811862 0.839081
v 0.307802 0.626679 0.986848
v 0.290469 0.417413 1.096691
v 0.261973 0.192105 1.164389
v 0.223410 -0.040585 1.187341
v 0.176261 -0.271715 1.164664
v 0.122339 -0.492403 1.097228
v 0.063715 -0.694169 0.987628
v 0.002643 -0.869258 0.840073
v -0.058531 -1.010942 0.660235
v -0.117455 -1.113776 0.455024
v 0.174253 1.196228 0.003576
v 0.169943 1.172678 0.239341
v 0.159103 1.104063 0.465908
v 0.142148 0.993019 0.674571
v 0.119731 0.843813 0.857310
v 0.092712 0.662181 1.007104
v 0.062131 0.455101 1.118195
v 0.029162 0.230532 1.186314
v -0.004928 -0.002896 1.208844
v -0.038828 -0.236213 1.184919
v -0.071237 -0.460452 1.115458
v -0.100907 -0.666996 1.003131
v -0.126700 -0.847909 0.852254
v -0.147624 -0.996236 0.668625
v -0.162875 -1.106279 0.459301
v 0.128615 1.201997 -0.001041
v 0.080421 1.183993 0.230285
v 0.029137 1.120490 0.452761
v -0.023266 1.013926 0.657838
v -0.074776 0.868398 0.837634
v -0.123412 0.689498 0.985241
v -0.167306 0.484101 1.094985
v -0.204770 0.260100 1.162649
v -0.234365 0.026104 1.185634
v -0.254953 -0.208895 1.163056
v -0.265744 -0.435867 1.095782
v -0.266322 -0.646089 0.986398
v -0.256666 -0.831482 0.839106
v -0.237146 -0.984921 0.659569
v -0.208512 -1.100510 0.454685
v 0.084513 1.205815 -0.014374
v -0.006089 1.191483 0.204131
v -0.096456 1.131364 0.414791
v -0.183117 1.027766 0.609511
v -0.262740 0.884672 0.780807
v -0.332267 0.707581 0.922098
v -0.389025 0.503298 1.027954
v -0.430833 0.279673 1.094305
v -0.456084 0.045300 1.118603
v -0.463808 -0.190813 1.099914
v -0.453708 -0.419593 1.038955
v -0.426172 -0.632249 0.938071
v -0.382259 -0.820608 0.801136
v -0.323656 -0.977431 0.633415
v -0.252615 -1.096692 0.441351
v 0.043640 1.207537 -0.035912
v -0.086264 1.194860 0.161883
v -0.212852 1.136266 0.353457
v -0.331260 1.034006 0.531448
v -0.436938 0.892010 0.689015
v -0.525825 0.715734 0.820104
v -0.594505 0.511953 0.919677
v -0.640339 0.288497 0.983906
v -0.661564 0.053955 1.010326
v -0.657366 -0.182660 0.997919
v -0.627906 -0.412256 0.947163
v -0.574316 -0.626009 0.860007
v -0.498655 -0.815705 0.739802
v -0.403831 -0.974054 0.591167
v -0.293488 -1.094970 0.419814
v 0.007568 1.207095 -0.064826
v -0.157021 1.193995 0.105166
v -0.315575 1.135010 0.271116
v -0.462003 1.032407 0.426648
v -0.590675 0.890129 0.565783
v -0.696649 0.713644 0.683177
v -0.775851 0.509734 0.774315
v -0.825237 0.286235 0.835697
v -0.842910 0.051737 0.864965
v -0.828190 -0.184750 0.860992
v -0.781643 -0.414137 0.823931
v -0.705058 -0.627609 0.755208
v -0.601379 -0.816962 0.657462
v -0.474588 -0.974920 0.534450
v -0.329560 -1.095412 0.390899
v -0.022317 1.204508 -0.100006
v -0.215642 1.188920 0.036159
v -0.400680 1.127642 0.170933
v -0.570321 1.023029 0.299139
v -0.718044 0.879102 0.415849
v -0.838173 0.701391 0.516578
v -0.926092 0.496727 0.597456
v -0.978421 0.272973 0.655373
v -0.993151 0.038730 0.688105
v -0.969714 -0.197002 0.694394
v -0.909011 -0.425164 0.673997
v -0.813376 -0.636986 0.627699
v -0.686483 -0.824330 0.557279
v -0.533210 -0.979995 0.465443
v -0.359444 -1.097999 0.355720
v 0.171866 1.173808 -0.232327
v -0.044866 1.199874 -0.140099
v -0.259874 1.179830 -0.042487
v -0.464896 1.114446 0.056758
v -0.652052 1.006234 0.153822
v -0.814149 0.859353 0.244974
v -0.944960 0.679447 0.326712
v -1.039456 0.473431 0.395894
v -1.094006 0.249221 0.449863
v -1.106514 0.015434 0.486544
v -1.076501 -0.218946 0.504527
v -1.005116 -0.444913 0.503121
v -0.895107 -0.653781 0.482381
v -0.750699 -0.837526 0.443103
v -0.577442 -0.989084 0.386797
v -0.381994 -1.102633 0.315627
v -0.059214 1.193372 -0.183564
v -0.288018 1.167075 -0.127748
v -0.505754 1.095929 -0.067022
v -0.704054 0.982666 -0.003721
v -0.875297 0.831640 0.059724
v -1.012904 0.648655 0.120873
v -1.111585 0.440742 0.177377
v -1.167548 0.215892 0.227065
v -1.178644 -0.017255 0.268027
v -1.144445 -0.249739 0.298688
v -1.066265 -0.472625 0.317872
v -0.947109 -0.677349 0.324839
v -0.791557 -0.856043 0.319323
v -0.605585 -1.001839 0.301536
v -0.396341 -1.109135 0.272161
v -0.064808 1.185251 -0.228733
v -0.298991 1.151146 -0.216348
v -0.521684 1.072802 -0.195650
v -0.724330 0.953232 -0.167433
v -0.899139 0.797029 -0.132781
v -1.039396 0.610197 -0.093027
v -1.139708 0.399916 -0.049698
v -1.196222 0.174265 -0.004459
v -1.206767 -0.058081 0.040951
v -1.170936 -0.288196 0.084788
v -1.090107 -0.507236 0.125366
v -0.967385 -0.706783 0.161127
v -0.807487 -0.879169 0.190695
v -0.616558 -1.017769 0.212936
v -0.401935 -1.117256 0.226993
v -0.061433 1.175824 -0.273867
v -0.292372 1.132653 -0.304883
v -0.512075 1.045956 -0.324183
v -0.712100 0.919062 -0.331024
v -0.884758 0.756850 -0.325144
v -1.023416 0.565553 -0.306769
v -1.122745 0.352521 -0.276606
v -1.178926 0.125942 -0.235812
v -1.189803 -0.105476 -0.185956
v -1.154957 -0.332841 -0.128954
v -1.075726 -0.547415 -0.066996
v -0.955155 -0.740953 -0.002464
v -0.797878 -0.906016 0.062163
v -0.609939 -1.036261 0.124401
v -0.398561 -1.126683 0.181858
v -0.049221 1.165452 -0.317234
v -0.268416 1.112309 -0.389950
v -0.477296 1.016420 -0.447681
v -0.667834 0.881470 -0.488207
v -0.832707 0.712647 -0.509972
v -0.965580 0.516436 -0.512139
v -1.061346 0.300380 -0.494625
v -1.116325 0.072779 -0.458103
v -1.128405 -0.157618 -0.403975
v -1.097121 -0.381957 -0.334324
v -1.023674 -0.591619 -0.251824
v -0.910889 -0.778545 -0.159647
v -0.763099 -0.935552 -0.061335
v -0.585983 -1.056606 0.039334
v -0.386348 -1.137055 0.138492
v -0.028638 1.154535 -0.357166
v -0.228042 1.090894 -0.468280
v -0.418682 0.985330 -0.561398
v -0.593233 0.841901 -0.632942
v -0.744986 0.666118 -0.680162
v -0.868110 0.464736 -0.701244
v -0.957872 0.245495 -0.695378
v -1.010824 0.016819 -0.662788
v -1.024931 -0.212502 -0.604728
v -0.999650 -0.433658 -0.523429
v -0.935953 -0.638148 -0.422014
v -0.836289 -0.818114 -0.304382
v -0.704485 -0.966641 -0.175053
v -0.545609 -1.078021 -0.038996
v -0.365766 -1.147972 0.098559
v -0.000478 1.143492 -0.392130
v -0.172803 1.069232 -0.536863
v -0.338488 0.953881 -0.660965
v -0.491165 0.801874 -0.759666
v -0.624966 0.619051 -0.829174
v -0.734751 0.412439 -0.866818
v -0.816299 0.189976 -0.871150
v -0.866477 -0.039787 -0.842004
v -0.883358 -0.268021 -0.780500
v -0.866291 -0.485955 -0.689003
v -0.815934 -0.685214 -0.571027
v -0.734220 -0.858141 -0.431107
v -0.624291 -0.998090 -0.274619
v -0.490370 -1.099683 -0.107579
v -0.337605 -1.159016 0.063596
v 0.034179 1.132747 -0.420780
v -0.104821 1.048154 -0.593063
v -0.239793 0.923282 -0.742555
v -0.365551 0.762929 -0.863510
v -0.477260 0.573256 -0.951282
v -0.570628 0.361554 -1.002496
v -0.642068 0.135957 -1.015185
v -0.688832 -0.094864 -0.988861
v -0.709126 -0.322040 -0.924536
v -0.702169 -0.536840 -0.824681
v -0.668227 -0.731009 -0.693134
v -0.608606 -0.897086 -0.534951
v -0.525596 -1.028689 -0.356209
v -0.422389 -1.120760 -0.163779
v -0.302948 -1.169761 0.034946
v 0.074000 1.122713 -0.442017
v -0.026709 1.028472 -0.634720
v -0.126392 0.894708 -0.803032
v -0.221219 0.726561 -0.940484
v -0.307543 0.530492 -1.041793
v -0.382049 0.314037 -1.103067
v -0.441873 0.085514 -1.121950
v -0.484716 -0.146296 -1.097717
v -0.508932 -0.372483 -1.031301
v -0.513590 -0.584356 -0.925252
v -0.498511 -0.773773 -0.783645
v -0.464274 -0.933454 -0.611924
v -0.412195 -1.057263 -0.416686
v -0.344277 -1.140442 -0.205436
v -0.263127 -1.179794 0.013709
v 0.117455 1.113776 -0.455024
v 0.058531 1.010942 -0.660235
v -0.002643 0.869258 -0.840072
v -0.063715 0.694169 -0.987628
v -0.122339 0.492403 -1.097228
v -0.176261 0.271715 -1.164663
v -0.223410 0.040585 -1.187340
v -0.261972 -0.192105 -1.164389
v -0.290468 -0.417413 -1.096691
v -0.307802 -0.626679 -0.986848
v -0.313306 -0.811862 -0.839080
v -0.306771 -0.965846 -0.659068
v -0.288446 -1.082714 -0.453727
v -0.259036 -1.157973 -0.230950
v -0.219672 -1.188731 0.000702
v -0.029161 -0.230532 -1.186313
v -0.062131 -0.455101 -1.118195
v -0.092712 -0.662181 -1.007104
v -0.169943 -1.172678 -0.239341
v -0.174253 -1.196228 -0.003575
v -0.171866 -1.173808 0.232327
vt 0.750000 0.875000
vt 0.750000 0.937500
vt 0.718750 0.937500
vt 0.718750 0.875000
vt 0.750000 0.375000
vt 0.750000 0.437500
vt 0.718750 0.437500
vt 0.718750 0.375000
vt 0.750000 0.812500
vt 0.718750 0.812500
vt 0.750000 0.312500
vt 0.718750 0.312500
vt 0.750000 0.750000
vt 0.718750 0.750000
vt 0.750000 0.250000
vt 0.718750 0.250000
vt 0.750000 0.687500
vt 0.718750 0.687500
vt 0.750000 0.187500
vt 0.718750 0.187500
vt 0.750000 0.625000
vt 0.718750 0.625000
vt 0.750000 0.125000
vt 0.718750 0.125000
vt 0.750000 0.562500
vt 0.718750 0.562500
vt 0.750000 0.062500
vt 0.718750 0.062500
vt 0.750000 0.500000
vt 0.718750 0.500000
vt 0.734375 1.000000
vt 0.734375 0.000000
vt 0.687500 0.562500
vt 0.687500 0.500000
vt 0.703125 1.000000
vt 0.687500 0.937500
vt 0.703125 0.000000
vt 0.687500 0.062500
vt 0.687500 0.437500
vt 0.687500 0.875000
vt 0.687500 0.375000
vt 0.687500 0.812500
vt 0.687500 0.312500
vt 0.687500 0.750000
vt 0.687500 0.250000
vt 0.687500 0.687500
vt 0.687500 0.187500
vt 0.687500 0.625000
vt 0.687500 0.125000
vt 0.656250 0.312500
vt 0.656250 0.250000
vt 0.656250 0.750000
vt 0.656250 0.687500
vt 0.656250 0.187500
vt 0.656250 0.625000
vt 0.656250 0.125000
vt 0.656250 0.562500
vt 0.656250 0.062500
vt 0.656250 0.500000
vt 0.671875 1.000000
vt 0.656250 0.937500
vt 0.671875 0.000000
vt 0.656250 0.437500
vt 0.656250 0.875000
vt 0.656250 0.375000
vt 0.656250 0.812500
vt 0.640625 0.000000
vt 0.625000 0.062500
vt 0.625000 0.500000
vt 0.625000 0.437500
vt 0.625000 0.937500
vt 0.625000 0.875000
vt 0.625000 0.375000
vt 0.625000 0.812500
vt 0.625000 0.312500
vt 0.625000 0.750000
vt 0.625000 0.250000
vt 0.625000 0.687500
vt 0.625000 0.187500
vt 0.625000 0.625000
vt 0.625000 0.125000
vt 0.625000 0.562500
vt 0.640625 1.000000
vt 0.593750 0.250000
vt 0.593750 0.187500
vt 0.593750 0.687500
vt 0.593750 0.625000
vt 0.593750 0.125000
vt 0.593750 0.562500
vt 0.593750 0.062500
vt 0.593750 0.500000
vt 0.609375 1.000000
vt 0.593750 0.937500
vt 0.609375 0.000000
vt 0.593750 0.437500
vt 0.593750 0.875000
vt 0.593750 0.375000
vt 0.593750 0.812500
vt 0.593750 0.312500
vt 0.593750 0.750000
vt 0.562500 0.937500
vt 0.562500 0.875000
vt 0.562500 0.437500
vt 0.562500 0.375000
vt 0.562500 0.812500
vt 0.562500 0.312500
vt 0.562500 0.750000
vt 0.562500 0.250000
vt 0.562500 0.687500
vt 0.562500 0.187500
vt 0.562500 0.625000
vt 0.562500 0.125000
vt 0.562500 0.562500
vt 0.562500 0.062500
vt 0.562500 0.500000
vt 0.578125 1.000000
vt 0.578125 0.000000
vt 0.531250 0.687500
vt 0.531250 0.625000
vt 0.531250 0.187500
vt 0.531250 0.125000
vt 0.531250 0.562500
vt 0.531250 0.062500
vt 0.531250 0.500000
vt 0.546875 1.000000
vt 0.531250 0.937500
vt 0.546875 0.000000
vt 0.531250 0.437500
vt 0.531250 0.875000
vt 0.531250 0.375000
vt 0.531250 0.812500
vt 0.531250 0.312500
vt 0.531250 0.750000
vt 0.531250 0.250000
vt 0.500000 0.437500
vt 0.500000 0.375000
vt 0.500000 0.875000
vt 0.500000 0.812500
vt 0.500000 0.312500
vt 0.500000 0.750000
vt 0.500000 0.250000
vt 0.500000 0.687500
vt 0.500000 0.187500
vt 0.500000 0.625000
vt 0.500000 0.125000
vt 0.500000 0.562500
vt 0.500000 0.062500
vt 0.500000 0.500000
vt 0.515625 1.000000
vt 0.500000 0.937500
vt 0.515625 0.000000
vt 0.468750 0.187500
vt 0.468750 0.125000
vt 0.468750 0.625000
vt 0.468750 0.562500
vt 0.468750 0.062500
vt 0.468750 0.500000
vt 0.484375 1.000000
vt 0.468750 0.937500
vt 0.484375 0.000000
vt 0.468750 0.437500
vt 0.468750 0.875000
vt 0.468750 0.375000
vt 0.468750 0.812500
vt 0.468750 0.312500
vt 0.468750 0.750000
vt 0.468750 0.250000
vt 0.468750 0.687500
vt 0.437500 0.875000
vt 0.437500 0.812500
vt 0.437500 0.375000
vt 0.437500 0.312500
vt 0.437500 0.750000
vt 0.437500 0.250000
vt 0.437500 0.687500
vt 0.437500 0.187500
vt 0.437500 0.625000
vt 0.437500 0.125000
vt 0.437500 0.562500
vt 0.437500 0.062500
vt 0.437500 0.500000
vt 0.453125 1.000000
vt 0.437500 0.937500
vt 0.453125 0.000000
vt 0.437500 0.437500
vt 0.406250 0.625000
vt 0.406250 0.562500
vt 0.406250 0.125000
vt 0.406250 0.062500
vt 0.406250 0.500000
vt 0.421875 1.000000
vt 0.406250 0.937500
vt 0.421875 0.000000
vt 0.406250 0.437500
vt 0.406250 0.875000
vt 0.406250 0.375000
vt 0.406250 0.812500
vt 0.406250 0.312500
vt 0.406250 0.750000
vt 0.406250 0.250000
vt 0.406250 0.687500
vt 0.406250 0.187500
vt 0.375000 0.375000
vt 0.375000 0.312500
vt 0.375000 0.812500
vt 0.375000 0.750000
vt 0.375000 0.250000
vt 0.375000 0.687500
vt 0.375000 0.187500
vt 0.375000 0.625000
vt 0.375000 0.125000
vt 0.375000 0.562500
vt 0.375000 0.062500
vt 0.375000 0.500000
vt 0.390625 1.000000
vt 0.375000 0.937500
vt 0.390625 0.000000
vt 0.375000 0.437500
vt 0.375000 0.875000
vt 0.343750 0.125000
vt 0.343750 0.062500
vt 0.343750 0.562500
vt 0.343750 0.500000
vt 0.359375 1.000000
vt 0.343750 0.937500
vt 0.359375 0.000000
vt 0.343750 0.437500
vt 0.343750 0.875000
vt 0.343750 0.375000
vt 0.343750 0.812500
vt 0.343750 0.312500
vt 0.343750 0.750000
vt 0.343750 0.250000
vt 0.343750 0.687500
vt 0.343750 0.187500
vt 0.343750 0.625000
vt 0.312500 0.312500
vt 0.312500 0.250000
vt 0.312500 0.750000
vt 0.312500 0.687500
vt 0.312500 0.187500
vt 0.312500 0.625000
vt 0.312500 0.125000
vt 0.312500 0.562500
vt 0.312500 0.062500
vt 0.312500 0.500000
vt 0.328125 1.000000
vt 0.312500 0.937500
vt 0.328125 0.000000
vt 0.312500 0.437500
vt 0.312500 0.875000
vt 0.312500 0.375000
vt 0.312500 0.812500
vt 0.296875 1.000000
vt 0.281250 0.937500
vt 0.296875 0.000000
vt 0.281250 0.062500
vt 0.281250 0.500000
vt 0.281250 0.437500
vt 0.281250 0.875000
vt 0.281250 0.375000
vt 0.281250 0.812500
vt 0.281250 0.312500
vt 0.281250 0.750000
vt 0.281250 0.250000
vt 0.281250 0.687500
vt 0.281250 0.187500
vt 0.281250 0.625000
vt 0.281250 0.125000
vt 0.281250 0.562500
vt 0.250000 0.750000
vt 0.250000 0.687500
vt 0.250000 0.250000
vt 0.250000 0.187500
vt 0.250000 0.625000
vt 0.250000 0.125000
vt 0.250000 0.562500
vt 0.250000 0.062500
vt 0.250000 0.500000
vt 0.265625 1.000000
vt 0.250000 0.937500
vt 0.265625 0.000000
vt 0.250000 0.437500
vt 0.250000 0.875000
vt 0.250000 0.375000
vt 0.250000 0.812500
vt 0.250000 0.312500
vt 0.218750 0.500000
vt 0.218750 0.437500
vt 0.218750 0.937500
vt 0.218750 0.875000
vt 0.218750 0.375000
vt 0.218750 0.812500
vt 0.218750 0.312500
vt 0.218750 0.750000
vt 0.218750 0.250000
vt 0.218750 0.687500
vt 0.218750 0.187500
vt 0.218750 0.625000
vt 0.218750 0.125000
vt 0.218750 0.562500
vt 0.218750 0.062500
vt 0.234375 1.000000
vt 0.234375 0.000000
vt 0.187500 0.250000
vt 0.187500 0.187500
vt 0.187500 0.687500
vt 0.187500 0.625000
vt 0.187500 0.125000
vt 0.187500 0.562500
vt 0.187500 0.062500
vt 0.187500 0.500000
vt 0.203125 1.000000
vt 0.187500 0.937500
vt 0.203125 0.000000
vt 0.187500 0.437500
vt 0.187500 0.875000
vt 0.187500 0.375000
vt 0.187500 0.812500
vt 0.187500 0.312500
vt 0.187500 0.750000
vt 0.156250 0.937500
vt 0.156250 0.875000
vt 0.156250 0.437500
vt 0.156250 0.375000
vt 0.156250 0.812500
vt 0.156250 0.312500
vt 0.156250 0.750000
vt 0.156250 0.250000
vt 0.156250 0.687500
vt 0.156250 0.187500
vt 0.156250 0.625000
vt 0.156250 0.125000
vt 0.156250 0.562500
vt 0.156250 0.062500
vt 0.156250 0.500000
vt 0.171875 1.000000
vt 0.171875 0.000000
vt 0.125000 0.687500
vt 0.125000 0.625000
vt 0.125000 0.187500
vt 0.125000 0.125000
vt 0.125000 0.562500
vt 0.125000 0.062500
vt 0.125000 0.500000
vt 0.140625 1.000000
vt 0.125000 0.937500
vt 0.140625 0.000000
vt 0.125000 0.437500
vt 0.125000 0.875000
vt 0.125000 0.375000
vt 0.125000 0.812500
vt 0.125000 0.312500
vt 0.125000 0.750000
vt 0.125000 0.250000
vt 0.093750 0.437500
vt 0.093750 0.375000
vt 0.093750 0.875000
vt 0.093750 0.812500
vt 0.093750 0.312500
vt 0.093750 0.750000
vt 0.093750 0.250000
vt 0.093750 0.687500
vt 0.093750 0.187500
vt 0.093750 0.625000
vt 0.093750 0.125000
vt 0.093750 0.562500
vt 0.093750 0.062500
vt 0.093750 0.500000
vt 0.109375 1.000000
vt 0.093750 0.937500
vt 0.109375 0.000000
vt 0.062500 0.187500
vt 0.062500 0.125000
vt 0.062500 0.625000
vt 0.062500 0.562500
vt 0.062500 0.062500
vt 0.062500 0.500000
vt 0.078125 1.000000
vt 0.062500 0.937500
vt 0.078125 0.000000
vt 0.062500 0.437500
vt 0.062500 0.875000
vt 0.062500 0.375000
vt 0.062500 0.812500
vt 0.062500 0.312500
vt 0.062500 0.750000
vt 0.062500 0.250000
vt 0.062500 0.687500
vt 0.031250 0.375000
vt 0.031250 0.312500
vt 0.031250 0.812500
vt 0.031250 0.750000
vt 0.031250 0.250000
vt 0.031250 0.687500
vt 0.031250 0.187500
vt 0.031250 0.625000
vt 0.031250 0.125000
vt 0.031250 0.562500
vt 0.031250 0.062500
vt 0.031250 0.500000
vt 0.046875 1.000000
vt 0.031250 0.937500
vt 0.046875 0.000000
vt 0.031250 0.437500
vt 0.031250 0.875000
vt 0.000000 0.125000
vt 0.000000 0.062500
vt 0.000000 0.562500
vt 0.000000 0.500000
vt 0.015625 1.000000
vt 0.000000 0.937500
vt 0.015625 0.000000
vt 0.000000 0.437500
vt 0.000000 0.875000
vt 0.000000 0.375000
vt 0.000000 0.812500
vt 0.000000 0.312500
vt 0.000000 0.750000
vt 0.000000 0.250000
vt 0.000000 0.687500
vt 0.000000 0.187500
vt 0.000000 0.625000
vt 1.000000 0.750000
vt 1.000000 0.812500
vt 0.968750 0.812500
vt 0.968750 0.750000
vt 1.000000 0.250000
vt 1.000000 0.312500
vt 0.968750 0.312500
vt 0.968750 0.250000
vt 1.000000 0.687500
vt 0.968750 0.687500
vt 1.000000 0.187500
vt 0.968750 0.187500
vt 1.000000 0.625000
vt 0.968750 0.625000
vt 1.000000 0.125000
vt 0.968750 0.125000
vt 1.000000 0.562500
vt 0.968750 0.562500
vt 1.000000 0.062500
vt 0.968750 0.062500
vt 1.000000 0.500000
vt 0.968750 0.500000
vt 1.000000 0.937500
vt 0.984375 1.000000
vt 0.968750 0.937500
vt 0.984375 0.000000
vt 1.000000 0.437500
vt 0.968750 0.437500
vt 1.000000 0.875000
vt 0.968750 0.875000
vt 1.000000 0.375000
vt 0.968750 0.375000
vt 0.937500 0.562500
vt 0.937500 0.500000
vt 0.953125 1.000000
vt 0.937500 0.937500
vt 0.953125 0.000000
vt 0.937500 0.062500
vt 0.937500 0.437500
vt 0.937500 0.875000
vt 0.937500 0.375000
vt 0.937500 0.812500
vt 0.937500 0.312500
vt 0.937500 0.750000
vt 0.937500 0.250000
vt 0.937500 0.687500
vt 0.937500 0.187500
vt 0.937500 0.625000
vt 0.937500 0.125000
vt 0.906250 0.312500
vt 0.906250 0.250000
vt 0.906250 0.750000
vt 0.906250 0.687500
vt 0.906250 0.187500
vt 0.906250 0.625000
vt 0.906250 0.125000
vt 0.906250 0.562500
vt 0.906250 0.062500
vt 0.906250 0.500000
vt 0.921875 1.000000
vt 0.906250 0.937500
vt 0.921875 0.000000
vt 0.906250 0.437500
vt 0.906250 0.875000
vt 0.906250 0.375000
vt 0.906250 0.812500
vt 0.890625 1.000000
vt 0.875000 0.937500
vt 0.890625 0.000000
vt 0.875000 0.062500
vt 0.875000 0.500000
vt 0.875000 0.437500
vt 0.875000 0.875000
vt 0.875000 0.375000
vt 0.875000 0.812500
vt 0.875000 0.312500
vt 0.875000 0.750000
vt 0.875000 0.250000
vt 0.875000 0.687500
vt 0.875000 0.187500
vt 0.875000 0.625000
vt 0.875000 0.125000
vt 0.875000 0.562500
vt 0.843750 0.750000
vt 0.843750 0.687500
vt 0.843750 0.250000
vt 0.843750 0.187500
vt 0.843750 0.625000
vt 0.843750 0.125000
vt 0.843750 0.562500
vt 0.843750 0.062500
vt 0.843750 0.500000
vt 0.859375 1.000000
vt 0.843750 0.937500
vt 0.859375 0.000000
vt 0.843750 0.437500
vt 0.843750 0.875000
vt 0.843750 0.375000
vt 0.843750 0.812500
vt 0.843750 0.312500
vt 0.812500 0.500000
vt 0.812500 0.437500
vt 0.812500 0.937500
vt 0.812500 0.875000
vt 0.812500 0.375000
vt 0.812500 0.812500
vt 0.812500 0.312500
vt 0.812500 0.750000
vt 0.812500 0.250000
vt 0.812500 0.687500
vt 0.812500 0.187500
vt 0.812500 0.625000
vt 0.812500 0.125000
vt 0.812500 0.562500
vt 0.812500 0.062500
vt 0.828125 1.000000
vt 0.828125 0.000000
vt 0.781250 0.250000
vt 0.781250 0.187500
vt 0.781250 0.687500
vt 0.781250 0.625000
vt 0.781250 0.125000
vt 0.781250 0.562500
vt 0.781250 0.062500
vt 0.781250 0.500000
vt 0.796875 1.000000
vt 0.781250 0.937500
vt 0.796875 0.000000
vt 0.781250 0.437500
vt 0.781250 0.875000
vt 0.781250 0.375000
vt 0.781250 0.812500
vt 0.781250 0.312500
vt 0.781250 0.750000
vt 0.765625 1.000000
vt 0.765625 0.000000
vn 0.1217 0.8210 -0.5578
vn 0.1344 0.9128 -0.3855
vn 0.1733 0.9079 -0.3815
vn 0.1967 0.8115 -0.5502
vn -0.0764 -0.5459 -0.8344
vn -0.0512 -0.3754 -0.9254
vn 0.1386 -0.3994 -0.9062
vn 0.1025 -0.5685 -0.8163
vn 0.1043 0.6979 -0.7086
vn 0.2126 0.6842 -0.6976
vn -0.0987 -0.6956 -0.7115
vn 0.0626 -0.7160 -0.6952
vn 0.0829 0.5482 -0.8322
vn 0.2204 0.5308 -0.8183
vn -0.1172 -0.8191 -0.5616
vn 0.0202 -0.8364 -0.5477
vn 0.0585 0.3778 -0.9240
vn 0.2197 0.3574 -0.9077
vn -0.1313 -0.9113 -0.3901
vn -0.0230 -0.9250 -0.3791
vn 0.0318 0.1931 -0.9807
vn 0.2107 0.1705 -0.9625
vn -0.1404 -0.9689 -0.2035
vn -0.0653 -0.9784 -0.1959
vn 0.0039 0.0012 -1.0000
vn 0.1937 -0.0228 -0.9808
vn -0.1441 -0.9895 -0.0089
vn -0.1052 -0.9944 -0.0050
vn -0.0241 -0.1907 -0.9813
vn 0.1694 -0.2152 -0.9618
vn 0.1422 0.9710 -0.1922
vn -0.1422 -0.9710 0.1922
vn 0.3772 -0.0386 -0.9253
vn 0.3564 -0.2313 -0.9052
vn 0.2109 0.9047 -0.3702
vn -0.0676 -0.9977 0.0063
vn 0.3220 -0.4153 -0.8508
vn 0.2693 0.8052 -0.5282
vn 0.2755 -0.5834 -0.7640
vn 0.3173 0.6751 -0.6660
vn 0.2184 -0.7295 -0.6481
vn 0.3532 0.5193 -0.7781
vn 0.1530 -0.8479 -0.5075
vn 0.3756 0.3439 -0.8606
vn 0.0817 -0.9341 -0.3475
vn 0.3837 0.1556 -0.9102
vn 0.0072 -0.9847 -0.1740
vn 0.3628 -0.7356 -0.5720
vn 0.2760 -0.8531 -0.4427
vn 0.4762 0.5141 -0.7133
vn 0.5200 0.3378 -0.7845
vn 0.1787 -0.9382 -0.2963
vn 0.5439 0.1488 -0.8258
vn 0.0744 -0.9875 -0.1386
vn 0.5472 -0.0458 -0.8357
vn -0.0328 -0.9991 0.0247
vn 0.5297 -0.2386 -0.8139
vn 0.2457 0.9032 -0.3518
vn 0.4920 -0.4224 -0.7612
vn 0.3365 0.8024 -0.4928
vn 0.4357 -0.5902 -0.6795
vn 0.4143 0.6710 -0.6149
vn -0.0021 -0.9988 0.0493
vn 0.6826 -0.2368 -0.6913
vn 0.6421 -0.4206 -0.6409
vn 0.2764 0.9036 -0.3272
vn 0.3958 0.8031 -0.4453
vn 0.5772 -0.5885 -0.5661
vn 0.4999 0.6720 -0.5462
vn 0.4903 -0.7340 -0.4699
vn 0.5849 0.5155 -0.6262
vn 0.3847 -0.8518 -0.3556
vn 0.6475 0.3394 -0.6823
vn 0.2643 -0.9372 -0.2277
vn 0.6854 0.1505 -0.7124
vn 0.1337 -0.9868 -0.0910
vn 0.6973 -0.0440 -0.7154
vn 0.4747 -0.8440 -0.2497
vn 0.3352 -0.9310 -0.1442
vn 0.7530 0.3486 -0.5580
vn 0.8026 0.1607 -0.5745
vn 0.1829 -0.9825 -0.0331
vn 0.8216 -0.0332 -0.5691
vn 0.0234 -0.9966 0.0793
vn 0.8094 -0.2258 -0.5421
vn 0.3019 0.9058 -0.2972
vn 0.7664 -0.4098 -0.4946
vn 0.4450 0.8074 -0.3874
vn 0.6944 -0.5783 -0.4282
vn 0.5709 0.6782 -0.4627
vn 0.5959 -0.7249 -0.3455
vn 0.6749 0.5233 -0.5203
vn 0.3211 0.9098 -0.2630
vn 0.4821 0.8150 -0.3215
vn 0.8602 -0.3905 -0.3278
vn 0.7828 -0.5601 -0.2710
vn 0.6244 0.6892 -0.3676
vn 0.6756 -0.7085 -0.2039
vn 0.7428 0.5372 -0.3996
vn 0.5426 -0.8300 -0.1289
vn 0.8327 0.3649 -0.4163
vn 0.3888 -0.9200 -0.0490
vn 0.8910 0.1788 -0.4172
vn 0.2200 -0.9749 0.0328
vn 0.9154 -0.0139 -0.4023
vn 0.0426 -0.9926 0.1135
vn 0.9050 -0.2062 -0.3721
vn 0.8834 0.3879 -0.2627
vn 0.9473 0.2043 -0.2468
vn 0.4228 -0.9046 0.0541
vn 0.2436 -0.9642 0.1043
vn 0.9750 0.0131 -0.2215
vn 0.0548 -0.9871 0.1505
vn 0.9658 -0.1786 -0.1878
vn 0.3334 0.9153 -0.2260
vn 0.9199 -0.3635 -0.1470
vn 0.5057 0.8257 -0.2500
vn 0.8390 -0.5347 -0.1006
vn 0.6584 0.7046 -0.2644
vn 0.7262 -0.6855 -0.0503
vn 0.7859 0.5568 -0.2687
vn 0.5858 -0.8104 0.0019
vn 0.9432 -0.3297 0.0409
vn 0.8610 -0.5028 0.0765
vn 0.5148 0.8390 -0.1757
vn 0.6717 0.7239 -0.1572
vn 0.7460 -0.6568 0.1093
vn 0.8028 0.5813 -0.1327
vn 0.6026 -0.7860 0.1379
vn 0.9032 0.4166 -0.1032
vn 0.4361 -0.8853 0.1613
vn 0.9692 0.2362 -0.0697
vn 0.2528 -0.9509 0.1786
vn 0.9983 0.0469 -0.0336
vn 0.0596 -0.9802 0.1890
vn 0.9895 -0.1441 0.0037
vn 0.3381 0.9222 -0.1875
vn 0.4281 -0.8629 0.2684
vn 0.2472 -0.9354 0.2528
vn 0.9560 0.2731 0.1072
vn 0.9843 0.0861 0.1541
vn 0.0567 -0.9721 0.2275
vn 0.9752 -0.1042 0.1950
vn 0.3352 0.9302 -0.1491
vn 0.9291 -0.2905 0.2286
vn 0.5093 0.8545 -0.1015
vn 0.8477 -0.4658 0.2535
vn 0.6637 0.7463 -0.0501
vn 0.7341 -0.6235 0.2688
vn 0.7926 0.6096 0.0032
vn 0.5925 -0.7576 0.2738
vn 0.8913 0.4499 0.0563
vn 0.4892 0.8716 -0.0301
vn 0.6347 0.7709 0.0529
vn 0.7999 -0.4252 0.4236
vn 0.6909 -0.5869 0.4220
vn 0.7559 0.6409 0.1338
vn 0.5557 -0.7264 0.4044
vn 0.8481 0.4866 0.2095
vn 0.3991 -0.8383 0.3714
vn 0.9081 0.3138 0.2773
vn 0.2271 -0.9183 0.3241
vn 0.9335 0.1292 0.3345
vn 0.0463 -0.9633 0.2644
vn 0.9234 -0.0602 0.3789
vn 0.3248 0.9391 -0.1121
vn 0.8783 -0.2474 0.4090
vn 0.8274 0.3566 0.4339
vn 0.8479 0.1746 0.5006
vn 0.1933 -0.9004 0.3898
vn 0.0287 -0.9540 0.2984
vn 0.8362 -0.0139 0.5483
vn 0.3073 0.9484 -0.0781
vn 0.7927 -0.2019 0.5751
vn 0.4554 0.8896 0.0355
vn 0.7192 -0.3824 0.5802
vn 0.5859 0.7968 0.1476
vn 0.6182 -0.5483 0.5631
vn 0.6939 0.6738 0.2540
vn 0.4937 -0.6935 0.5246
vn 0.7754 0.5251 0.3507
vn 0.3503 -0.8124 0.4661
vn 0.6087 -0.3391 0.7172
vn 0.5187 -0.5093 0.6867
vn 0.5190 0.8230 0.2306
vn 0.6091 0.7070 0.3593
vn 0.4089 -0.6603 0.6299
vn 0.6759 0.5641 0.4742
vn 0.2834 -0.7862 0.5492
vn 0.7169 0.3999 0.5710
vn 0.1470 -0.8822 0.4473
vn 0.7307 0.2206 0.6460
vn 0.0048 -0.9446 0.3282
vn 0.7168 0.0329 0.6965
vn 0.2833 0.9578 -0.0483
vn 0.6756 -0.1560 0.7206
vn 0.4090 0.9077 0.0930
vn 0.0900 -0.8645 0.4944
vn -0.0248 -0.9354 0.3526
vn 0.5866 0.2653 0.7652
vn 0.5698 0.0785 0.8180
vn 0.2538 0.9669 -0.0239
vn 0.5314 -0.1113 0.8397
vn 0.3521 0.9254 0.1401
vn 0.4728 -0.2969 0.8296
vn 0.4368 0.8485 0.2986
vn 0.3963 -0.4713 0.7879
vn 0.5047 0.7394 0.4456
vn 0.3045 -0.6279 0.7162
vn 0.5534 0.6021 0.5754
vn 0.2011 -0.7607 0.6171
vn 0.5810 0.4421 0.6833
vn 0.2555 -0.4359 0.8629
vn 0.1846 -0.5977 0.7801
vn 0.3848 0.7696 0.5095
vn 0.4127 0.6376 0.6505
vn 0.1066 -0.7369 0.6676
vn 0.4249 0.4814 0.7666
vn 0.0245 -0.8480 0.5293
vn 0.4209 0.3070 0.8535
vn -0.0587 -0.9268 0.3707
vn 0.4010 0.1210 0.9080
vn 0.2198 0.9755 -0.0058
vn 0.3658 -0.0696 0.9281
vn 0.2866 0.9419 0.1751
vn 0.3167 -0.2576 0.9129
vn 0.3422 0.8723 0.3490
vn 0.1828 0.9831 0.0053
vn -0.0957 -0.9192 0.3818
vn 0.2167 0.1589 0.9632
vn 0.1850 -0.0324 0.9822
vn 0.2151 0.9566 0.1965
vn 0.1463 -0.2225 0.9639
vn 0.2391 0.8936 0.3799
vn 0.1020 -0.4043 0.9089
vn 0.2540 0.7965 0.5487
vn 0.0538 -0.5708 0.8193
vn 0.2592 0.6691 0.6964
vn 0.0035 -0.7157 0.6984
vn 0.2545 0.5164 0.8176
vn -0.0470 -0.8333 0.5507
vn 0.2402 0.3442 0.9077
vn 0.1172 0.8191 0.5616
vn 0.0987 0.6956 0.7115
vn -0.0829 -0.5482 0.8322
vn -0.1043 -0.6979 0.7086
vn 0.0764 0.5459 0.8344
vn -0.1217 -0.8210 0.5578
vn 0.0512 0.3754 0.9254
vn -0.1344 -0.9128 0.3855
vn 0.0241 0.1907 0.9813
vn 0.1441 0.9895 0.0089
vn -0.0039 -0.0012 1.0000
vn 0.1404 0.9689 0.2035
vn -0.0318 -0.1931 0.9807
vn 0.1313 0.9113 0.3901
vn -0.0585 -0.3778 0.9240
vn -0.1694 0.2152 0.9618
vn -0.1937 0.0228 0.9808
vn 0.1052 0.9944 0.0050
vn 0.0653 0.9784 0.1959
vn -0.2107 -0.1705 0.9625
vn 0.0230 0.9250 0.3791
vn -0.2197 -0.3574 0.9077
vn -0.0202 0.8364 0.5477
vn -0.2204 -0.5308 0.8183
vn -0.0626 0.7160 0.6952
vn -0.2126 -0.6842 0.6976
vn -0.1025 0.5685 0.8163
vn -0.1967 -0.8115 0.5502
vn -0.1386 0.3994 0.9062
vn -0.1733 -0.9079 0.3815
vn -0.3532 -0.5193 0.7781
vn -0.3173 -0.6751 0.6660
vn -0.2184 0.7295 0.6481
vn -0.2755 0.5834 0.7640
vn -0.2693 -0.8052 0.5282
vn -0.3220 0.4153 0.8508
vn -0.2109 -0.9047 0.3702
vn -0.3564 0.2313 0.9052
vn 0.0676 0.9977 -0.0063
vn -0.3772 0.0386 0.9253
vn -0.0072 0.9847 0.1740
vn -0.3837 -0.1556 0.9102
vn -0.0817 0.9341 0.3475
vn -0.3756 -0.3439 0.8606
vn -0.1530 0.8479 0.5075
vn 0.0328 0.9991 -0.0247
vn -0.0744 0.9875 0.1386
vn -0.5472 0.0458 0.8357
vn -0.5439 -0.1488 0.8258
vn -0.1787 0.9382 0.2963
vn -0.5200 -0.3378 0.7845
vn -0.2760 0.8531 0.4427
vn -0.4762 -0.5141 0.7133
vn -0.3628 0.7356 0.5720
vn -0.4143 -0.6710 0.6149
vn -0.4357 0.5902 0.6795
vn -0.3365 -0.8024 0.4928
vn -0.4920 0.4224 0.7612
vn -0.2457 -0.9032 0.3518
vn -0.5297 0.2386 0.8139
vn -0.4903 0.7340 0.4699
vn -0.5772 0.5885 0.5661
vn -0.4999 -0.6720 0.5462
vn -0.3958 -0.8031 0.4453
vn -0.6421 0.4206 0.6409
vn -0.2764 -0.9036 0.3272
vn -0.6826 0.2368 0.6913
vn 0.0021 0.9988 -0.0493
vn -0.6973 0.0440 0.7154
vn -0.1337 0.9868 0.0910
vn -0.6854 -0.1505 0.7124
vn -0.2643 0.9372 0.2277
vn -0.6475 -0.3394 0.6823
vn -0.3847 0.8518 0.3556
vn -0.5849 -0.5155 0.6262
vn -0.8216 0.0332 0.5691
vn -0.8026 -0.1607 0.5745
vn -0.1829 0.9825 0.0331
vn -0.3352 0.9310 0.1442
vn -0.7530 -0.3486 0.5580
vn -0.4747 0.8440 0.2497
vn -0.6749 -0.5233 0.5203
vn -0.5959 0.7249 0.3455
vn -0.5709 -0.6782 0.4627
vn -0.6944 0.5783 0.4282
vn -0.4450 -0.8074 0.3874
vn -0.7664 0.4098 0.4946
vn -0.3019 -0.9058 0.2972
vn -0.8094 0.2258 0.5421
vn -0.0234 0.9966 -0.0793
vn -0.6244 -0.6892 0.3676
vn -0.4821 -0.8150 0.3215
vn -0.7828 0.5601 0.2710
vn -0.8602 0.3905 0.3278
vn -0.3211 -0.9098 0.2630
vn -0.9050 0.2062 0.3721
vn -0.0426 0.9926 -0.1135
vn -0.9154 0.0139 0.4023
vn -0.2200 0.9749 -0.0328
vn -0.8910 -0.1788 0.4172
vn -0.3888 0.9200 0.0490
vn -0.8327 -0.3649 0.4163
vn -0.5426 0.8300 0.1289
vn -0.7428 -0.5372 0.3996
vn -0.6756 0.7085 0.2039
vn -0.9473 -0.2043 0.2468
vn -0.8834 -0.3879 0.2627
vn -0.4228 0.9046 -0.0541
vn -0.5858 0.8104 -0.0019
vn -0.7859 -0.5568 0.2687
vn -0.7262 0.6855 0.0503
vn -0.6584 -0.7046 0.2644
vn -0.8390 0.5347 0.1006
vn -0.5057 -0.8257 0.2500
vn -0.9199 0.3635 0.1470
vn -0.3334 -0.9153 0.2260
vn -0.9658 0.1786 0.1878
vn -0.0548 0.9871 -0.1505
vn -0.9750 -0.0131 0.2215
vn -0.2436 0.9642 -0.1043
vn -0.5148 -0.8390 0.1757
vn -0.3381 -0.9222 0.1875
vn -0.9432 0.3297 -0.0409
vn -0.9895 0.1441 -0.0037
vn -0.0596 0.9802 -0.1890
vn -0.9983 -0.0469 0.0336
vn -0.2528 0.9509 -0.1786
vn -0.9692 -0.2362 0.0697
vn -0.4361 0.8853 -0.1613
vn -0.9032 -0.4166 0.1032
vn -0.6026 0.7860 -0.1379
vn -0.8028 -0.5813 0.1327
vn -0.7460 0.6568 -0.1093
vn -0.6717 -0.7239 0.1572
vn -0.8610 0.5028 -0.0765
vn -0.4281 0.8629 -0.2684
vn -0.5925 0.7576 -0.2738
vn -0.8913 -0.4499 -0.0563
vn -0.7926 -0.6096 -0.0032
vn -0.7341 0.6235 -0.2688
vn -0.6637 -0.7463 0.0501
vn -0.8477 0.4658 -0.2535
vn -0.5093 -0.8545 0.1015
vn -0.9291 0.2905 -0.2286
vn -0.3352 -0.9302 0.1491
vn -0.9752 0.1042 -0.1950
vn -0.0567 0.9721 -0.2275
vn -0.9843 -0.0861 -0.1541
vn -0.2472 0.9354 -0.2528
vn -0.9560 -0.2731 -0.1072
vn -0.8783 0.2474 -0.4090
vn -0.9234 0.0602 -0.3789
vn -0.0463 0.9633 -0.2644
vn -0.3248 -0.9391 0.1121
vn -0.9335 -0.1292 -0.3345
vn -0.2271 0.9183 -0.3241
vn -0.9081 -0.3138 -0.2773
vn -0.3991 0.8383 -0.3714
vn -0.8481 -0.4866 -0.2095
vn -0.5557 0.7264 -0.4044
vn -0.7559 -0.6409 -0.1338
vn -0.6909 0.5869 -0.4220
vn -0.6347 -0.7709 -0.0529
vn -0.7999 0.4252 -0.4236
vn -0.4892 -0.8716 0.0301
vn -0.7754 -0.5251 -0.3507
vn -0.6939 -0.6738 -0.2540
vn -0.4937 0.6935 -0.5246
vn -0.6182 0.5483 -0.5631
vn -0.5859 -0.7968 -0.1476
vn -0.7192 0.3824 -0.5802
vn -0.4554 -0.8896 -0.0355
vn -0.7927 0.2019 -0.5751
vn -0.3073 -0.9484 0.0781
vn -0.8362 0.0139 -0.5483
vn -0.0287 0.9540 -0.2984
vn -0.8479 -0.1746 -0.5006
vn -0.1933 0.9004 -0.3898
vn -0.8274 -0.3566 -0.4339
vn -0.3503 0.8124 -0.4661
vn -0.0048 0.9446 -0.3282
vn -0.2833 -0.9578 0.0483
vn -0.7168 -0.0329 -0.6965
vn -0.7307 -0.2206 -0.6460
vn -0.1470 0.8822 -0.4473
vn -0.7169 -0.3999 -0.5710
vn -0.2834 0.7862 -0.5492
vn -0.6759 -0.5641 -0.4742
vn -0.4089 0.6603 -0.6299
vn -0.6091 -0.7070 -0.3593
vn -0.5187 0.5093 -0.6867
vn -0.5190 -0.8230 -0.2306
vn -0.6087 0.3391 -0.7172
vn -0.4090 -0.9077 -0.0930
vn -0.6756 0.1560 -0.7206
vn -0.3045 0.6279 -0.7162
vn -0.3963 0.4713 -0.7879
vn -0.5047 -0.7394 -0.4456
vn -0.4368 -0.8485 -0.2986
vn -0.4728 0.2969 -0.8296
vn -0.3521 -0.9254 -0.1401
vn -0.5314 0.1113 -0.8397
vn -0.2538 -0.9669 0.0239
vn -0.5698 -0.0785 -0.8180
vn 0.0248 0.9354 -0.3526
vn -0.5866 -0.2653 -0.7652
vn -0.0900 0.8645 -0.4944
vn -0.5810 -0.4421 -0.6833
vn -0.2011 0.7607 -0.6171
vn -0.5534 -0.6021 -0.5754
vn -0.4010 -0.1210 -0.9080
vn -0.4209 -0.3070 -0.8535
vn 0.0587 0.9268 -0.3707
vn -0.0245 0.8480 -0.5293
vn -0.4249 -0.4814 -0.7666
vn -0.1066 0.7369 -0.6676
vn -0.4127 -0.6376 -0.6505
vn -0.1846 0.5977 -0.7801
vn -0.3848 -0.7696 -0.5095
vn -0.2555 0.4359 -0.8629
vn -0.3422 -0.8723 -0.3490
vn -0.3167 0.2576 -0.9129
vn -0.2866 -0.9419 -0.1751
vn -0.3658 0.0696 -0.9281
vn -0.2198 -0.9755 0.0058
vn -0.2540 -0.7965 -0.5487
vn -0.2391 -0.8936 -0.3799
vn -0.1020 0.4043 -0.9089
vn -0.1463 0.2225 -0.9639
vn -0.2151 -0.9566 -0.1965
vn -0.1850 0.0324 -0.9822
vn -0.1828 -0.9831 -0.0053
vn -0.2167 -0.1589 -0.9632
vn 0.0957 0.9192 -0.3818
vn -0.2402 -0.3442 -0.9077
vn 0.0470 0.8333 -0.5507
vn -0.2545 -0.5164 -0.8176
vn -0.0035 0.7157 -0.6984
vn -0.2592 -0.6691 -0.6964
vn -0.0538 0.5708 -0.8193
usemtl Material.002
s 1
f 2/1/1 1/2/2 11/3/3 12/4/4
f 479/5/5 478/6/6 19/7/7 20/8/8
f 3/9/9 2/1/1 12/4/4 13/10/10
f 8/11/11 479/5/5 20/8/8 21/12/12
f 4/13/13 3/9/9 13/10/10 14/14/14
f 9/15/15 8/11/11 21/12/12 22/16/16
f 5/17/17 4/13/13 14/14/14 15/18/18
f 10/19/19 9/15/15 22/16/16 23/20/20
f 6/21/21 5/17/17 15/18/18 16/22/22
f 480/23/23 10/19/19 23/20/20 24/24/24
f 7/25/25 6/21/21 16/22/22 17/26/26
f 481/27/27 480/23/23 24/24/24 25/28/28
f 477/29/29 7/25/25 17/26/26 18/30/30
f 1/2/2 326/31/31 11/3/3
f 482/32/32 481/27/27 25/28/28
f 478/6/6 477/29/29 18/30/30 19/7/7
f 18/30/30 17/26/26 32/33/33 33/34/34
f 11/3/3 326/35/31 26/36/35
f 482/37/32 25/28/28 40/38/36
f 19/7/7 18/30/30 33/34/34 34/39/37
f 12/4/4 11/3/3 26/36/35 27/40/38
f 20/8/8 19/7/7 34/39/37 35/41/39
f 13/10/10 12/4/4 27/40/38 28/42/40
f 21/12/12 20/8/8 35/41/39 36/43/41
f 14/14/14 13/10/10 28/42/40 29/44/42
f 22/16/16 21/12/12 36/43/41 37/45/43
f 15/18/18 14/14/14 29/44/42 30/46/44
f 23/20/20 22/16/16 37/45/43 38/47/45
f 16/22/22 15/18/18 30/46/44 31/48/46
f 24/24/24 23/20/20 38/47/45 39/49/47
f 17/26/26 16/22/22 31/48/46 32/33/33
f 25/28/28 24/24/24 39/49/47 40/38/36
f 37/45/43 36/43/41 51/50/48 52/51/49
f 30/46/44 29/44/42 44/52/50 45/53/51
f 38/47/45 37/45/43 52/51/49 53/54/52
f 31/48/46 30/46/44 45/53/51 46/55/53
f 39/49/47 38/47/45 53/54/52 54/56/54
f 32/33/33 31/48/46 46/55/53 47/57/55
f 40/38/36 39/49/47 54/56/54 55/58/56
f 33/34/34 32/33/33 47/57/55 48/59/57
f 26/36/35 326/60/31 41/61/58
f 482/62/32 40/38/36 55/58/56
f 34/39/37 33/34/34 48/59/57 49/63/59
f 27/40/38 26/36/35 41/61/58 42/64/60
f 35/41/39 34/39/37 49/63/59 50/65/61
f 28/42/40 27/40/38 42/64/60 43/66/62
f 36/43/41 35/41/39 50/65/61 51/50/48
f 29/44/42 28/42/40 43/66/62 44/52/50
f 482/67/32 55/58/56 70/68/63
f 49/63/59 48/59/57 63/69/64 64/70/65
f 42/64/60 41/61/58 56/71/66 57/72/67
f 50/65/61 49/63/59 64/70/65 65/73/68
f 43/66/62 42/64/60 57/72/67 58/74/69
f 51/50/48 50/65/61 65/73/68 66/75/70
f 44/52/50 43/66/62 58/74/69 59/76/71
f 52/51/49 51/50/48 66/75/70 67/77/72
f 45/53/51 44/52/50 59/76/71 60/78/73
f 53/54/52 52/51/49 67/77/72 68/79/74
f 46/55/53 45/53/51 60/78/73 61/80/75
f 54/56/54 53/54/52 68/79/74 69/81/76
f 47/57/55 46/55/53 61/80/75 62/82/77
f 55/58/56 54/56/54 69/81/76 70/68/63
f 48/59/57 47/57/55 62/82/77 63/69/64
f 41/61/58 326/83/31 56/71/66
f 68/79/74 67/77/72 82/84/78 83/85/79
f 61/80/75 60/78/73 75/86/80 76/87/81
f 69/81/76 68/79/74 83/85/79 84/88/82
f 62/82/77 61/80/75 76/87/81 77/89/83
f 70/68/63 69/81/76 84/88/82 85/90/84
f 63/69/64 62/82/77 77/89/83 78/91/85
f 56/71/66 326/92/31 71/93/86
f 482/94/32 70/68/63 85/90/84
f 64/70/65 63/69/64 78/91/85 79/95/87
f 57/72/67 56/71/66 71/93/86 72/96/88
f 65/73/68 64/70/65 79/95/87 80/97/89
f 58/74/69 57/72/67 72/96/88 73/98/90
f 66/75/70 65/73/68 80/97/89 81/99/91
f 59/76/71 58/74/69 73/98/90 74/100/92
f 67/77/72 66/75/70 81/99/91 82/84/78
f 60/78/73 59/76/71 74/100/92 75/86/80
f 72/96/88 71/93/86 86/101/93 87/102/94
f 80/97/89 79/95/87 94/103/95 95/104/96
f 73/98/90 72/96/88 87/102/94 88/105/97
f 81/99/91 80/97/89 95/104/96 96/106/98
f 74/100/92 73/98/90 88/105/97 89/107/99
f 82/84/78 81/99/91 96/106/98 97/108/100
f 75/86/80 74/100/92 89/107/99 90/109/101
f 83/85/79 82/84/78 97/108/100 98/110/102
f 76/87/81 75/86/80 90/109/101 91/111/103
f 84/88/82 83/85/79 98/110/102 99/112/104
f 77/89/83 76/87/81 91/111/103 92/113/105
f 85/90/84 84/88/82 99/112/104 100/114/106
f 78/91/85 77/89/83 92/113/105 93/115/107
f 71/93/86 326/116/31 86/101/93
f 482/117/32 85/90/84 100/114/106
f 79/95/87 78/91/85 93/115/107 94/103/95
f 91/111/103 90/109/101 105/118/108 106/119/109
f 99/112/104 98/110/102 113/120/110 114/121/111
f 92/113/105 91/111/103 106/119/109 107/122/112
f 100/114/106 99/112/104 114/121/111 115/123/113
f 93/115/107 92/113/105 107/122/112 108/124/114
f 86/101/93 326/125/31 101/126/115
f 482/127/32 100/114/106 115/123/113
f 94/103/95 93/115/107 108/124/114 109/128/116
f 87/102/94 86/101/93 101/126/115 102/129/117
f 95/104/96 94/103/95 109/128/116 110/130/118
f 88/105/97 87/102/94 102/129/117 103/131/119
f 96/106/98 95/104/96 110/130/118 111/132/120
f 89/107/99 88/105/97 103/131/119 104/133/121
f 97/108/100 96/106/98 111/132/120 112/134/122
f 90/109/101 89/107/99 104/133/121 105/118/108
f 98/110/102 97/108/100 112/134/122 113/120/110
f 110/130/118 109/128/116 124/135/123 125/136/124
f 103/131/119 102/129/117 117/137/125 118/138/126
f 111/132/120 110/130/118 125/136/124 126/139/127
f 104/133/121 103/131/119 118/138/126 119/140/128
f 112/134/122 111/132/120 126/139/127 127/141/129
f 105/118/108 104/133/121 119/140/128 120/142/130
f 113/120/110 112/134/122 127/141/129 128/143/131
f 106/119/109 105/118/108 120/142/130 121/144/132
f 114/121/111 113/120/110 128/143/131 129/145/133
f 107/122/112 106/119/109 121/144/132 122/146/134
f 115/123/113 114/121/111 129/145/133 130/147/135
f 108/124/114 107/122/112 122/146/134 123/148/136
f 101/126/115 326/149/31 116/150/137
f 482/151/32 115/123/113 130/147/135
f 109/128/116 108/124/114 123/148/136 124/135/123
f 102/129/117 101/126/115 116/150/137 117/137/125
f 129/145/133 128/143/131 143/152/138 144/153/139
f 122/146/134 121/144/132 136/154/140 137/155/141
f 130/147/135 129/145/133 144/153/139 145/156/142
f 123/148/136 122/146/134 137/155/141 138/157/143
f 116/150/137 326/158/31 131/159/144
f 482/160/32 130/147/135 145/156/142
f 124/135/123 123/148/136 138/157/143 139/161/145
f 117/137/125 116/150/137 131/159/144 132/162/146
f 125/136/124 124/135/123 139/161/145 140/163/147
f 118/138/126 117/137/125 132/162/146 133/164/148
f 126/139/127 125/136/124 140/163/147 141/165/149
f 119/140/128 118/138/126 133/164/148 134/166/150
f 127/141/129 126/139/127 141/165/149 142/167/151
f 120/142/130 119/140/128 134/166/150 135/168/152
f 128/143/131 127/141/129 142/167/151 143/152/138
f 121/144/132 120/142/130 135/168/152 136/154/140
f 133/164/148 132/162/146 147/169/153 148/170/154
f 141/165/149 140/163/147 155/171/155 156/172/156
f 134/166/150 133/164/148 148/170/154 149/173/157
f 142/167/151 141/165/149 156/172/156 157/174/158
f 135/168/152 134/166/150 149/173/157 150/175/159
f 143/152/138 142/167/151 157/174/158 158/176/160
f 136/154/140 135/168/152 150/175/159 151/177/161
f 144/153/139 143/152/138 158/176/160 159/178/162
f 137/155/141 136/154/140 151/177/161 152/179/163
f 145/156/142 144/153/139 159/178/162 160/180/164
f 138/157/143 137/155/141 152/179/163 153/181/165
f 131/159/144 326/182/31 146/183/166
f 482/184/32 145/156/142 160/180/164
f 139/161/145 138/157/143 153/181/165 154/185/167
f 132/162/146 131/159/144 146/183/166 147/169/153
f 140/163/147 139/161/145 154/185/167 155/171/155
f 152/179/163 151/177/161 166/186/168 167/187/169
f 160/180/164 159/178/162 174/188/170 175/189/171
f 153/181/165 152/179/163 167/187/169 168/190/172
f 146/183/166 326/191/31 161/192/173
f 482/193/32 160/180/164 175/189/171
f 154/185/167 153/181/165 168/190/172 169/194/174
f 147/169/153 146/183/166 161/192/173 162/195/175
f 155/171/155 154/185/167 169/194/174 170/196/176
f 148/170/154 147/169/153 162/195/175 163/197/177
f 156/172/156 155/171/155 170/196/176 171/198/178
f 149/173/157 148/170/154 163/197/177 164/199/179
f 157/174/158 156/172/156 171/198/178 172/200/180
f 150/175/159 149/173/157 164/199/179 165/201/181
f 158/176/160 157/174/158 172/200/180 173/202/182
f 151/177/161 150/175/159 165/201/181 166/186/168
f 159/178/162 158/176/160 173/202/182 174/188/170
f 171/198/178 170/196/176 185/203/183 186/204/184
f 164/199/179 163/197/177 178/205/185 179/206/186
f 172/200/180 171/198/178 186/204/184 187/207/187
f 165/201/181 164/199/179 179/206/186 180/208/188
f 173/202/182 172/200/180 187/207/187 188/209/189
f 166/186/168 165/201/181 180/208/188 181/210/190
f 174/188/170 173/202/182 188/209/189 189/211/191
f 167/187/169 166/186/168 181/210/190 182/212/192
f 175/189/171 174/188/170 189/211/191 190/213/193
f 168/190/172 167/187/169 182/212/192 183/214/194
f 161/192/173 326/215/31 176/216/195
f 482/217/32 175/189/171 190/213/193
f 169/194/174 168/190/172 183/214/194 184/218/196
f 162/195/175 161/192/173 176/216/195 177/219/197
f 170/196/176 169/194/174 184/218/196 185/203/183
f 163/197/177 162/195/175 177/219/197 178/205/185
f 190/213/193 189/211/191 204/220/198 205/221/199
f 183/214/194 182/212/192 197/222/200 198/223/201
f 176/216/195 326/224/31 191/225/202
f 482/226/32 190/213/193 205/221/199
f 184/218/196 183/214/194 198/223/201 199/227/203
f 177/219/197 176/216/195 191/225/202 192/228/204
f 185/203/183 184/218/196 199/227/203 200/229/205
f 178/205/185 177/219/197 192/228/204 193/230/206
f 186/204/184 185/203/183 200/229/205 201/231/207
f 179/206/186 178/205/185 193/230/206 194/232/208
f 187/207/187 186/204/184 201/231/207 202/233/209
f 180/208/188 179/206/186 194/232/208 195/234/210
f 188/209/189 187/207/187 202/233/209 203/235/211
f 181/210/190 180/208/188 195/234/210 196/236/212
f 189/211/191 188/209/189 203/235/211 204/220/198
f 182/212/192 181/210/190 196/236/212 197/222/200
f 202/233/209 201/231/207 216/237/213 217/238/214
f 195/234/210 194/232/208 209/239/215 210/240/216
f 203/235/211 202/233/209 217/238/214 218/241/217
f 196/236/212 195/234/210 210/240/216 211/242/218
f 204/220/198 203/235/211 218/241/217 219/243/219
f 197/222/200 196/236/212 211/242/218 212/244/220
f 205/221/199 204/220/198 219/243/219 220/245/221
f 198/223/201 197/222/200 212/244/220 213/246/222
f 191/225/202 326/247/31 206/248/223
f 482/249/32 205/221/199 220/245/221
f 199/227/203 198/223/201 213/246/222 214/250/224
f 192/228/204 191/225/202 206/248/223 207/251/225
f 200/229/205 199/227/203 214/250/224 215/252/226
f 193/230/206 192/228/204 207/251/225 208/253/227
f 201/231/207 200/229/205 215/252/226 216/237/213
f 194/232/208 193/230/206 208/253/227 209/239/215
f 206/248/223 326/254/31 221/255/228
f 482/256/32 220/245/221 235/257/229
f 214/250/224 213/246/222 228/258/230 229/259/231
f 207/251/225 206/248/223 221/255/228 222/260/232
f 215/252/226 214/250/224 229/259/231 230/261/233
f 208/253/227 207/251/225 222/260/232 223/262/234
f 216/237/213 215/252/226 230/261/233 231/263/235
f 209/239/215 208/253/227 223/262/234 224/264/236
f 217/238/214 216/237/213 231/263/235 232/265/237
f 210/240/216 209/239/215 224/264/236 225/266/238
f 218/241/217 217/238/214 232/265/237 233/267/239
f 211/242/218 210/240/216 225/266/238 226/268/240
f 219/243/219 218/241/217 233/267/239 234/269/241
f 212/244/220 211/242/218 226/268/240 227/270/242
f 220/245/221 219/243/219 234/269/241 235/257/229
f 213/246/222 212/244/220 227/270/242 228/258/230
f 225/266/238 224/264/236 239/271/243 240/272/244
f 233/267/239 232/265/237 247/273/245 248/274/246
f 226/268/240 225/266/238 240/272/244 241/275/247
f 234/269/241 233/267/239 248/274/246 249/276/248
f 227/270/242 226/268/240 241/275/247 242/277/249
f 235/257/229 234/269/241 249/276/248 250/278/250
f 228/258/230 227/270/242 242/277/249 243/279/251
f 221/255/228 326/280/31 236/281/252
f 482/282/32 235/257/229 250/278/250
f 229/259/231 228/258/230 243/279/251 244/283/253
f 222/260/232 221/255/228 236/281/252 237/284/254
f 230/261/233 229/259/231 244/283/253 245/285/255
f 223/262/234 222/260/232 237/284/254 238/286/256
f 231/263/235 230/261/233 245/285/255 246/287/257
f 224/264/236 223/262/234 238/286/256 239/271/243
f 232/265/237 231/263/235 246/287/257 247/273/245
f 244/283/253 243/279/251 258/288/258 259/289/259
f 237/284/254 236/281/252 251/290/260 252/291/261
f 245/285/255 244/283/253 259/289/259 260/292/262
f 238/286/256 237/284/254 252/291/261 253/293/263
f 246/287/257 245/285/255 260/292/262 261/294/264
f 239/271/243 238/286/256 253/293/263 254/295/265
f 247/273/245 246/287/257 261/294/264 262/296/266
f 240/272/244 239/271/243 254/295/265 255/297/267
f 248/274/246 247/273/245 262/296/266 263/298/268
f 241/275/247 240/272/244 255/297/267 256/299/269
f 249/276/248 248/274/246 263/298/268 264/300/270
f 242/277/249 241/275/247 256/299/269 257/301/271
f 250/278/250 249/276/248 264/300/270 265/302/272
f 243/279/251 242/277/249 257/301/271 258/288/258
f 236/281/252 326/303/31 251/290/260
f 482/304/32 250/278/250 265/302/272
f 263/298/268 262/296/266 277/305/273 278/306/274
f 256/299/269 255/297/267 270/307/275 271/308/276
f 264/300/270 263/298/268 278/306/274 279/309/277
f 257/301/271 256/299/269 271/308/276 272/310/278
f 265/302/272 264/300/270 279/309/277 280/311/279
f 258/288/258 257/301/271 272/310/278 273/312/280
f 251/290/260 326/313/31 266/314/281
f 482/315/32 265/302/272 280/311/279
f 259/289/259 258/288/258 273/312/280 274/316/282
f 252/291/261 251/290/260 266/314/281 267/317/283
f 260/292/262 259/289/259 274/316/282 275/318/284
f 253/293/263 252/291/261 267/317/283 268/319/285
f 261/294/264 260/292/262 275/318/284 276/320/286
f 254/295/265 253/293/263 268/319/285 269/321/287
f 262/296/266 261/294/264 276/320/286 277/305/273
f 255/297/267 254/295/265 269/321/287 270/307/275
f 267/317/283 266/314/281 281/322/288 282/323/289
f 275/318/284 274/316/282 289/324/290 290/325/291
f 268/319/285 267/317/283 282/323/289 283/326/292
f 276/320/286 275/318/284 290/325/291 291/327/293
f 269/321/287 268/319/285 283/326/292 284/328/294
f 277/305/273 276/320/286 291/327/293 292/329/295
f 270/307/275 269/321/287 284/328/294 285/330/296
f 278/306/274 277/305/273 292/329/295 293/331/297
f 271/308/276 270/307/275 285/330/296 286/332/298
f 279/309/277 278/306/274 293/331/297 294/333/299
f 272/310/278 271/308/276 286/332/298 287/334/300
f 280/311/279 279/309/277 294/333/299 295/335/301
f 273/312/280 272/310/278 287/334/300 288/336/302
f 266/314/281 326/337/31 281/322/288
f 482/338/32 280/311/279 295/335/301
f 274/316/282 273/312/280 288/336/302 289/324/290
f 286/332/298 285/330/296 300/339/303 301/340/304
f 294/333/299 293/331/297 308/341/305 309/342/306
f 287/334/300 286/332/298 301/340/304 302/343/307
f 295/335/301 294/333/299 309/342/306 310/344/308
f 288/336/302 287/334/300 302/343/307 303/345/309
f 281/322/288 326/346/31 296/347/310
f 482/348/32 295/335/301 310/344/308
f 289/324/290 288/336/302 303/345/309 304/349/311
f 282/323/289 281/322/288 296/347/310 297/350/312
f 290/325/291 289/324/290 304/349/311 305/351/313
f 283/326/292 282/323/289 297/350/312 298/352/314
f 291/327/293 290/325/291 305/351/313 306/353/315
f 284/328/294 283/326/292 298/352/314 299/354/316
f 292/329/295 291/327/293 306/353/315 307/355/317
f 285/330/296 284/328/294 299/354/316 300/339/303
f 293/331/297 292/329/295 307/355/317 308/341/305
f 305/351/313 304/349/311 319/356/318 320/357/319
f 298/352/314 297/350/312 312/358/320 313/359/321
f 306/353/315 305/351/313 320/357/319 321/360/322
f 299/354/316 298/352/314 313/359/321 314/361/323
f 307/355/317 306/353/315 321/360/322 322/362/324
f 300/339/303 299/354/316 314/361/323 315/363/325
f 308/341/305 307/355/317 322/362/324 323/364/326
f 301/340/304 300/339/303 315/363/325 316/365/327
f 309/342/306 308/341/305 323/364/326 324/366/328
f 302/343/307 301/340/304 316/365/327 317/367/329
f 310/344/308 309/342/306 324/366/328 325/368/330
f 303/345/309 302/343/307 317/367/329 318/369/331
f 296/347/310 326/370/31 311/371/332
f 482/372/32 310/344/308 325/368/330
f 304/349/311 303/345/309 318/369/331 319/356/318
f 297/350/312 296/347/310 311/371/332 312/358/320
f 324/366/328 323/364/326 339/373/333 340/374/334
f 317/367/329 316/365/327 332/375/335 333/376/336
f 325/368/330 324/366/328 340/374/334 341/377/337
f 318/369/331 317/367/329 333/376/336 334/378/338
f 311/371/332 326/379/31 327/380/339
f 482/381/32 325/368/330 341/377/337
f 319/356/318 318/369/331 334/378/338 335/382/340
f 312/358/320 311/371/332 327/380/339 328/383/341
f 320/357/319 319/356/318 335/382/340 336/384/342
f 313/359/321 312/358/320 328/383/341 329/385/343
f 321/360/322 320/357/319 336/384/342 337/386/344
f 314/361/323 313/359/321 329/385/343 330/387/345
f 322/362/324 321/360/322 337/386/344 338/388/346
f 315/363/325 314/361/323 330/387/345 331/389/347
f 323/364/326 322/362/324 338/388/346 339/373/333
f 316/365/327 315/363/325 331/389/347 332/375/335
f 337/386/344 336/384/342 351/390/348 352/391/349
f 330/387/345 329/385/343 344/392/350 345/393/351
f 338/388/346 337/386/344 352/391/349 353/394/352
f 331/389/347 330/387/345 345/393/351 346/395/353
f 339/373/333 338/388/346 353/394/352 354/396/354
f 332/375/335 331/389/347 346/395/353 347/397/355
f 340/374/334 339/373/333 354/396/354 355/398/356
f 333/376/336 332/375/335 347/397/355 348/399/357
f 341/377/337 340/374/334 355/398/356 356/400/358
f 334/378/338 333/376/336 348/399/357 349/401/359
f 327/380/339 326/402/31 342/403/360
f 482/404/32 341/377/337 356/400/358
f 335/382/340 334/378/338 349/401/359 350/405/361
f 328/383/341 327/380/339 342/403/360 343/406/362
f 336/384/342 335/382/340 350/405/361 351/390/348
f 329/385/343 328/383/341 343/406/362 344/392/350
f 356/400/358 355/398/356 370/407/363 371/408/364
f 349/401/359 348/399/357 363/409/365 364/410/366
f 342/403/360 326/411/31 357/412/367
f 482/413/32 356/400/358 371/408/364
f 350/405/361 349/401/359 364/410/366 365/414/368
f 343/406/362 342/403/360 357/412/367 358/415/369
f 351/390/348 350/405/361 365/414/368 366/416/370
f 344/392/350 343/406/362 358/415/369 359/417/371
f 352/391/349 351/390/348 366/416/370 367/418/372
f 345/393/351 344/392/350 359/417/371 360/419/373
f 353/394/352 352/391/349 367/418/372 368/420/374
f 346/395/353 345/393/351 360/419/373 361/421/375
f 354/396/354 353/394/352 368/420/374 369/422/376
f 347/397/355 346/395/353 361/421/375 362/423/377
f 355/398/356 354/396/354 369/422/376 370/407/363
f 348/399/357 347/397/355 362/423/377 363/409/365
f 360/424/373 359/425/371 374/426/378 375/427/379
f 368/428/374 367/429/372 382/430/380 383/431/381
f 361/432/375 360/424/373 375/427/379 376/433/382
f 369/434/376 368/428/374 383/431/381 384/435/383
f 362/436/377 361/432/375 376/433/382 377/437/384
f 370/438/363 369/434/376 384/435/383 385/439/385
f 363/440/365 362/436/377 377/437/384 378/441/386
f 371/442/364 370/438/363 385/439/385 386/443/387
f 364/444/366 363/440/365 378/441/386 379/445/388
f 357/446/367 326/447/31 372/448/389
f 482/449/32 371/442/364 386/443/387
f 365/450/368 364/444/366 379/445/388 380/451/390
f 358/452/369 357/446/367 372/448/389 373/453/391
f 366/454/370 365/450/368 380/451/390 381/455/392
f 359/425/371 358/452/369 373/453/391 374/426/378
f 367/429/372 366/454/370 381/455/392 382/430/380
f 379/445/388 378/441/386 393/456/393 394/457/394
f 372/448/389 326/458/31 387/459/395
f 482/460/32 386/443/387 401/461/396
f 380/451/390 379/445/388 394/457/394 395/462/397
f 373/453/391 372/448/389 387/459/395 388/463/398
f 381/455/392 380/451/390 395/462/397 396/464/399
f 374/426/378 373/453/391 388/463/398 389/465/400
f 382/430/380 381/455/392 396/464/399 397/466/401
f 375/427/379 374/426/378 389/465/400 390/467/402
f 383/431/381 382/430/380 397/466/401 398/468/403
f 376/433/382 375/427/379 390/467/402 391/469/404
f 384/435/383 383/431/381 398/468/403 399/470/405
f 377/437/384 376/433/382 391/469/404 392/471/406
f 385/439/385 384/435/383 399/470/405 400/472/407
f 378/441/386 377/437/384 392/471/406 393/456/393
f 386/443/387 385/439/385 400/472/407 401/461/396
f 398/468/403 397/466/401 412/473/408 413/474/409
f 391/469/404 390/467/402 405/475/410 406/476/411
f 399/470/405 398/468/403 413/474/409 414/477/412
f 392/471/406 391/469/404 406/476/411 407/478/413
f 400/472/407 399/470/405 414/477/412 415/479/414
f 393/456/393 392/471/406 407/478/413 408/480/415
f 401/461/396 400/472/407 415/479/414 416/481/416
f 394/457/394 393/456/393 408/480/415 409/482/417
f 387/459/395 326/483/31 402/484/418
f 482/485/32 401/461/396 416/481/416
f 395/462/397 394/457/394 409/482/417 410/486/419
f 388/463/398 387/459/395 402/484/418 403/487/420
f 396/464/399 395/462/397 410/486/419 411/488/421
f 389/465/400 388/463/398 403/487/420 404/489/422
f 397/466/401 396/464/399 411/488/421 412/473/408
f 390/467/402 389/465/400 404/489/422 405/475/410
f 402/484/418 326/490/31 417/491/423
f 482/492/32 416/481/416 431/493/424
f 410/486/419 409/482/417 424/494/425 425/495/426
f 403/487/420 402/484/418 417/491/423 418/496/427
f 411/488/421 410/486/419 425/495/426 426/497/428
f 404/489/422 403/487/420 418/496/427 419/498/429
f 412/473/408 411/488/421 426/497/428 427/499/430
f 405/475/410 404/489/422 419/498/429 420/500/431
f 413/474/409 412/473/408 427/499/430 428/501/432
f 406/476/411 405/475/410 420/500/431 421/502/433
f 414/477/412 413/474/409 428/501/432 429/503/434
f 407/478/413 406/476/411 421/502/433 422/504/435
f 415/479/414 414/477/412 429/503/434 430/505/436
f 408/480/415 407/478/413 422/504/435 423/506/437
f 416/481/416 415/479/414 430/505/436 431/493/424
f 409/482/417 408/480/415 423/506/437 424/494/425
f 421/502/433 420/500/431 435/507/438 436/508/439
f 429/503/434 428/501/432 443/509/440 444/510/441
f 422/504/435 421/502/433 436/508/439 437/511/442
f 430/505/436 429/503/434 444/510/441 445/512/443
f 423/506/437 422/504/435 437/511/442 438/513/444
f 431/493/424 430/505/436 445/512/443 446/514/445
f 424/494/425 423/506/437 438/513/444 439/515/446
f 417/491/423 326/516/31 432/517/447
f 482/518/32 431/493/424 446/514/445
f 425/495/426 424/494/425 439/515/446 440/519/448
f 418/496/427 417/491/423 432/517/447 433/520/449
f 426/497/428 425/495/426 440/519/448 441/521/450
f 419/498/429 418/496/427 433/520/449 434/522/451
f 427/499/430 426/497/428 441/521/450 442/523/452
f 420/500/431 419/498/429 434/522/451 435/507/438
f 428/501/432 427/499/430 442/523/452 443/509/440
f 440/519/448 439/515/446 454/524/453 455/525/454
f 433/520/449 432/517/447 447/526/455 448/527/456
f 441/521/450 440/519/448 455/525/454 456/528/457
f 434/522/451 433/520/449 448/527/456 449/529/458
f 442/523/452 441/521/450 456/528/457 457/530/459
f 435/507/438 434/522/451 449/529/458 450/531/460
f 443/509/440 442/523/452 457/530/459 458/532/461
f 436/508/439 435/507/438 450/531/460 451/533/462
f 444/510/441 443/509/440 458/532/461 459/534/463
f 437/511/442 436/508/439 451/533/462 452/535/464
f 445/512/443 444/510/441 459/534/463 460/536/465
f 438/513/444 437/511/442 452/535/464 453/537/466
f 446/514/445 445/512/443 460/536/465 461/538/467
f 439/515/446 438/513/444 453/537/466 454/524/453
f 432/517/447 326/539/31 447/526/455
f 482/540/32 446/514/445 461/538/467
f 459/534/463 458/532/461 473/541/468 474/542/469
f 452/535/464 451/533/462 466/543/470 467/544/471
f 460/536/465 459/534/463 474/542/469 475/545/472
f 453/537/466 452/535/464 467/544/471 468/546/473
f 461/538/467 460/536/465 475/545/472 476/547/474
f 454/524/453 453/537/466 468/546/473 469/548/475
f 447/526/455 326/549/31 462/550/476
f 482/551/32 461/538/467 476/547/474
f 455/525/454 454/524/453 469/548/475 470/552/477
f 448/527/456 447/526/455 462/550/476 463/553/478
f 456/528/457 455/525/454 470/552/477 471/554/479
f 449/529/458 448/527/456 463/553/478 464/555/480
f 457/530/459 456/528/457 471/554/479 472/556/481
f 450/531/460 449/529/458 464/555/480 465/557/482
f 458/532/461 457/530/459 472/556/481 473/541/468
f 451/533/462 450/531/460 465/557/482 466/543/470
f 471/554/479 470/552/477 478/6/6 479/5/5
f 464/555/480 463/553/478 2/1/1 3/9/9
f 472/556/481 471/554/479 479/5/5 8/11/11
f 465/557/482 464/555/480 3/9/9 4/13/13
f 473/541/468 472/556/481 8/11/11 9/15/15
f 466/543/470 465/557/482 4/13/13 5/17/17
f 474/542/469 473/541/468 9/15/15 10/19/19
f 467/544/471 466/543/470 5/17/17 6/21/21
f 475/545/472 474/542/469 10/19/19 480/23/23
f 468/546/473 467/544/471 6/21/21 7/25/25
f 476/547/474 475/545/472 480/23/23 481/27/27
f 469/548/475 468/546/473 7/25/25 477/29/29
f 462/550/476 326/558/31 1/2/2
f 482/559/32 476/547/474 481/27/27
f 470/552/477 469/548/475 477/29/29 478/6/6
f 463/553/478 462/550/476 1/2/2 2/1/1
o Cube_Cube.001
v -5.100720 1.599932 5.154881
v -5.115960 1.445756 5.185237
v -5.276317 -0.423173 -5.208776
v -5.291556 -0.577349 -5.178420
v 5.291556 0.577349 5.178420
v 5.276317 0.423173 5.208776
v 5.115960 -1.445756 -5.185237
v 5.100720 -1.599932 -5.154881
vt 0.375000 0.000000
vt 0.375000 0.250000
vt 0.625000 0.250000
vt 0.625000 0.000000
vt 0.375000 0.500000
vt 0.625000 0.500000
vt 0.375000 0.750000
vt 0.625000 0.750000
vt 0.375000 1.000000
vt 0.625000 1.000000
vt 0.125000 0.500000
vt 0.125000 0.750000
vt 0.875000 0.750000
vt 0.875000 0.500000
vn -0.9952 0.0979 -0.0023
vn -0.0166 -0.1916 -0.9813
vn 0.9952 -0.0979 0.0023
vn 0.0166 0.1916 0.9813
vn 0.0965 0.9766 -0.1923
vn -0.0965 -0.9766 0.1923
usemtl Material.003
s off
f 483/560/483 485/561/483 486/562/483 484/563/483
f 485/561/484 489/564/484 490/565/484 486/562/484
f 489/564/485 487/566/485 488/567/485 490/565/485
f 487/566/486 483/568/486 484/569/486 488/567/486
f 485/570/487 483/571/487 487/566/487 489/564/487
f 490/565/488 488/567/488 484/572/488 486/573/488
